<?xml version="1.0" encoding="UTF-8"?>
<svg width="161px" height="74px" viewBox="0 0 161 74" version="1.1" xmlns="http://www.w3.org/2000/svg" xmlns:xlink="http://www.w3.org/1999/xlink">
    <title>Group 12</title>
    <defs>
        <polygon id="path-1" points="0.778434711 0.150883037 132.277843 0.150883037 132.277843 40.3174054 0.778434711 40.3174054"></polygon>
    </defs>
    <g id="Page-1" stroke="none" stroke-width="1" fill="none" fill-rule="evenodd">
        <g id="42-optimonk-popup-boating-02" transform="translate(-40.000000, -559.000000)">
            <g id="Group-12" transform="translate(120.500000, 596.000000) rotate(3.000000) translate(-120.500000, -596.000000) translate(42.500000, 564.000000)">
                <path d="M96.7234131,0.0494658873 L109.610974,5.39607709 C109.610974,5.39607709 64.171021,17.2765763 43.610974,30.0494659 C43.610974,30.0494659 72.365347,6.58445834 96.7234131,0.0494658873" id="Fill-1" fill="#353B3E"></path>
                <g id="Group-5" transform="translate(22.144741, 4.433213)">
                    <mask id="mask-2" fill="white">
                        <use xlink:href="#path-1"></use>
                    </mask>
                    <g id="Clip-4"></g>
                    <path d="M132.278063,1.08262162 C132.278063,1.08262162 86.9492446,-9.45105405 0.778434711,40.3174054 C0.778434711,40.3174054 54.2103603,13.8690811 93.2310215,10.814027 C93.2310215,10.814027 43.3472281,23.4054595 25.3878314,34.3568919 C25.3878314,34.3568919 67.5125587,18.4876757 92.3439884,17.5934324 C92.3439884,17.5934324 73.942724,22.0646486 68.3995917,25.8632432 C68.3995917,25.8632432 94.3796579,20.3481892 104.685509,30.8175946 L132.278063,1.08262162 Z" id="Fill-3" fill="#0092AF" mask="url(#mask-2)"></path>
                </g>
                <path d="M0.0156928651,39.8642395 C0.0156928651,39.8642395 2.80989835,54.852217 40.1625748,45.248701 C77.5152512,35.645185 88.8386186,30.6968043 107.074774,31.8611292 C125.308742,33.025454 130.015693,44.3743752 130.015693,44.3743752 C130.015693,44.3743752 120.456339,29.4751289 79.2803579,42.3086725 C38.1032836,55.1432982 3.39826725,57.9805285 0.0156928651,39.8642395" id="Fill-6" fill="#024E9C"></path>
                <path d="M127.567405,47.6746176 C127.567405,47.6746176 118.563681,35.5727587 92.1452186,43.3951738 C65.7245613,51.2164913 57.9018691,62.1384574 38.5674052,62.1384574 C38.5674052,62.1384574 51.5554672,68.4846345 74.2848499,56.0875279 C97.0153303,43.6893238 115.31694,43.0999261 127.567405,47.6746176" id="Fill-8" fill="#024E9C"></path>
                <path d="M58.6586703,51.2478343 C58.6586703,51.2478343 33.7611925,59.8982929 12.6586703,54.4641292 C12.6586703,54.4641292 24.4941054,61.8940451 40.7942595,58.2346163 C57.0955205,54.5751875 58.6586703,51.2478343 58.6586703,51.2478343" id="Fill-10" fill="#024E9C"></path>
            </g>
        </g>
    </g>
</svg>